<svg width="19" height="18" viewBox="0 0 19 18" fill="none" xmlns="http://www.w3.org/2000/svg">
<path fill-rule="evenodd" clip-rule="evenodd" d="M8.69706 2.3063C8.94812 2.22472 9.21855 2.22472 9.46961 2.3063C9.56627 2.3377 9.69296 2.40516 9.91257 2.5916C10.1389 2.78373 10.411 3.05499 10.8157 3.45976L14.1667 6.81068V11.7C14.1667 12.5525 14.1661 13.1467 14.1283 13.6093C14.0912 14.0632 14.0221 14.324 13.9214 14.5215C13.7057 14.9448 13.3615 15.289 12.9381 15.5048C12.7406 15.6054 12.4799 15.6745 12.026 15.7116C11.5634 15.7494 10.9691 15.75 10.1167 15.75H8.05001C7.19755 15.75 6.60331 15.7494 6.14068 15.7116C5.6868 15.6745 5.42604 15.6054 5.22852 15.5048C4.80516 15.289 4.46095 14.9448 4.24524 14.5215C4.1446 14.324 4.07547 14.0632 4.03838 13.6093C4.00058 13.1467 4 12.5525 4 11.7V6.81068L7.35093 3.45976C7.75569 3.05499 8.02779 2.78372 8.2541 2.5916C8.47371 2.40516 8.6004 2.3377 8.69706 2.3063ZM2.71619 5.97317L0.21967 8.46969C-0.0732233 8.76258 -0.0732233 9.23746 0.21967 9.53035C0.512563 9.82325 0.987437 9.82325 1.28033 9.53035L2.5 8.31068L2.5 11.7321C2.49999 12.5449 2.49999 13.2006 2.54336 13.7315C2.58803 14.2781 2.68239 14.7582 2.90873 15.2025C3.26825 15.9081 3.84193 16.4817 4.54754 16.8413C4.99175 17.0676 5.4719 17.162 6.01853 17.2066C6.54944 17.25 7.20505 17.25 8.01788 17.25H10.1488C10.9616 17.25 11.6172 17.25 12.1481 17.2066C12.6948 17.162 13.1749 17.0676 13.6191 16.8413C14.3247 16.4817 14.8984 15.9081 15.2579 15.2025C15.4843 14.7582 15.5786 14.2781 15.6233 13.7315C15.6667 13.2006 15.6667 12.5449 15.6667 11.7321V8.31068L16.8863 9.53035C17.1792 9.82325 17.6541 9.82325 17.947 9.53035C18.2399 9.23746 18.2399 8.76259 17.947 8.46969L15.4504 5.97313C15.4482 5.97082 15.4459 5.96852 15.4435 5.96623L11.8549 2.37757C11.4772 1.99987 11.1619 1.6846 10.8833 1.44809C10.5928 1.20142 10.2931 0.99668 9.93313 0.879712C9.38081 0.700252 8.78586 0.700252 8.23354 0.879712C7.87355 0.99668 7.5739 1.20142 7.28333 1.44809C7.00474 1.6846 6.68948 1.99987 6.31179 2.37758L2.72317 5.96619C2.72083 5.9685 2.7185 5.97083 2.71619 5.97317Z" fill="#A1A1A1"/>
</svg>
