<svg width="20" height="18" viewBox="0 0 20 18" fill="none" xmlns="http://www.w3.org/2000/svg">
<path fill-rule="evenodd" clip-rule="evenodd" d="M9.61381 2.30636C9.86487 2.22479 10.1353 2.22479 10.3864 2.30636C10.483 2.33777 10.6097 2.40522 10.8293 2.59166C11.0556 2.78379 11.3277 3.05505 11.7325 3.45982L15.0834 6.81075V11.7001C15.0834 12.5525 15.0828 13.1467 15.045 13.6094C15.008 14.0633 14.9388 14.324 14.8382 14.5215C14.6225 14.9449 14.2783 15.2891 13.8549 15.5048C13.6574 15.6055 13.3966 15.6746 12.9427 15.7117C12.4801 15.7495 11.8859 15.7501 11.0334 15.7501H8.96675C8.1143 15.7501 7.52006 15.7495 7.05743 15.7117C6.60355 15.6746 6.34279 15.6055 6.14527 15.5048C5.72191 15.2891 5.3777 14.9449 5.16198 14.5215C5.06134 14.324 4.99221 14.0633 4.95513 13.6094C4.91733 13.1467 4.91675 12.5525 4.91675 11.7001V6.81074L8.26767 3.45982C8.67244 3.05505 8.94453 2.78379 9.17085 2.59166C9.39046 2.40522 9.51715 2.33777 9.61381 2.30636ZM3.63294 5.97323L1.13642 8.46975C0.843525 8.76265 0.843525 9.23752 1.13642 9.53041C1.42931 9.82331 1.90418 9.82331 2.19708 9.53041L3.41675 8.31074L3.41675 11.7322C3.41674 12.545 3.41673 13.2006 3.46011 13.7315C3.50477 14.2782 3.59913 14.7583 3.82547 15.2025C4.185 15.9081 4.75868 16.4818 5.46428 16.8413C5.9085 17.0677 6.38864 17.162 6.93528 17.2067C7.46619 17.2501 8.1218 17.2501 8.93463 17.2501H11.0655C11.8784 17.2501 12.534 17.2501 13.0649 17.2067C13.6115 17.162 14.0917 17.0677 14.5359 16.8413C15.2415 16.4818 15.8152 15.9081 16.1747 15.2025C16.401 14.7583 16.4954 14.2782 16.5401 13.7315C16.5834 13.2006 16.5834 12.545 16.5834 11.7321V8.31075L17.8031 9.53041C18.096 9.82331 18.5709 9.82331 18.8637 9.53041C19.1566 9.23752 19.1566 8.76265 18.8637 8.46975L16.3672 5.97319C16.3649 5.97088 16.3626 5.96858 16.3603 5.96629L12.7716 2.37764C12.3939 1.99993 12.0787 1.68466 11.8001 1.44815C11.5095 1.20148 11.2099 0.996741 10.8499 0.879773C10.2976 0.700313 9.70261 0.700313 9.15029 0.879773C8.79029 0.996741 8.49065 1.20148 8.20008 1.44815C7.92149 1.68466 7.60623 1.99993 7.22853 2.37764L3.63992 5.96625C3.63758 5.96856 3.63525 5.97089 3.63294 5.97323Z" fill="#F6A405"/>
</svg>
