<svg width="16" height="16" viewBox="0 0 16 16" fill="none" xmlns="http://www.w3.org/2000/svg">
<path fill-rule="evenodd" clip-rule="evenodd" d="M1.5 7.41667C1.5 4.14898 4.14898 1.5 7.41667 1.5C10.6844 1.5 13.3333 4.14898 13.3333 7.41667C13.3333 10.6844 10.6844 13.3333 7.41667 13.3333C4.14898 13.3333 1.5 10.6844 1.5 7.41667ZM7.41667 0C3.32055 0 0 3.32055 0 7.41667C0 11.5128 3.32055 14.8333 7.41667 14.8333C9.19458 14.8333 10.8264 14.2077 12.104 13.1647L14.3863 15.4471C14.6792 15.74 15.1541 15.74 15.447 15.4471C15.7399 15.1542 15.7399 14.6793 15.447 14.3864L13.1646 12.104C14.2077 10.8264 14.8333 9.19462 14.8333 7.41667C14.8333 3.32055 11.5128 0 7.41667 0Z" fill="#F6A405"/>
</svg>
