<svg width="16" height="16" viewBox="0 0 16 16" fill="none" xmlns="http://www.w3.org/2000/svg">
<path fill-rule="evenodd" clip-rule="evenodd" d="M15.5712 0.072256C15.833 0.196353 16 0.460216 16 0.75001L14.7769 0.168065V0.168048L14.7777 0.167366C14.778 0.167178 14.7776 0.167521 14.7765 0.168378L14.7621 0.179557C14.7472 0.190943 14.7217 0.210013 14.6857 0.235689C14.6135 0.287045 14.4989 0.364803 14.3414 0.460366C14.0264 0.65147 13.5398 0.91379 12.8777 1.17865C11.5559 1.70738 9.52654 2.24947 6.75411 2.25001C6.50517 2.0917 6.20972 2 5.89286 2H4C1.79086 2 0 3.79086 0 6C0 7.6791 1.03458 9.11655 2.50107 9.7097C2.50036 9.723 2.5 9.7365 2.5 9.75C2.5 12.0693 2.98616 13.6807 3.31256 14.5006C3.57478 15.1593 4.20971 15.5 4.83032 15.5H6.02682C6.7117 15.5 7.25503 15.1115 7.57322 14.6427C7.88953 14.1767 8.04127 13.5532 7.88312 12.9466C7.6832 12.1798 7.50121 11.1123 7.50001 9.7635C9.89372 9.8501 11.6774 10.3413 12.8777 10.8214C13.5398 11.0862 14.0264 11.3485 14.3414 11.5397C14.4989 11.6352 14.6135 11.713 14.6857 11.7643C14.7217 11.79 14.7472 11.8091 14.7621 11.8205L14.7765 11.8316L14.7775 11.8325C15.0016 12.0143 15.3102 12.0514 15.5712 11.9278C15.833 11.8037 16 11.5398 16 11.25V0.75001L14.7765 0.168385L14.7769 0.168065C15.001 -0.014169 15.31 -0.051509 15.5712 0.072256ZM4.00209 10C4.03507 11.9687 4.45144 13.3059 4.70618 13.9458C4.71036 13.9563 4.71689 13.9658 4.73305 13.9759C4.75155 13.9875 4.78444 14 4.83032 14H6.02682C6.10976 14 6.22857 13.9529 6.33212 13.8003C6.43757 13.645 6.4672 13.4614 6.43164 13.325C6.21387 12.4898 6.02248 11.3739 6.00184 9.9964C5.96582 9.9988 5.92948 10 5.89286 10H4.00209ZM7.5 8.26255C10.1013 8.3502 12.0728 8.88384 13.4348 9.42865C13.8457 9.593 14.2006 9.7582 14.5 9.9119V2.08807C14.2006 2.24187 13.8457 2.407 13.4348 2.57137C12.0728 3.11618 10.1013 3.64982 7.5 3.73748V8.26255ZM14.7765 0.168385L14.7761 0.168692L14.7765 0.168378V0.168385ZM1.5 6C1.5 4.61929 2.61929 3.5 4 3.5H5.89286C5.95203 3.5 6 3.54797 6 3.60714V8.39286C6 8.45203 5.95203 8.5 5.89286 8.5H4C2.61929 8.5 1.5 7.38071 1.5 6Z" fill="#F6A405"/>
</svg>
