<svg width="10" height="10" viewBox="0 0 10 10" fill="none" xmlns="http://www.w3.org/2000/svg">
<path fill-rule="evenodd" clip-rule="evenodd" d="M7.10832 0.363887C7.59349 -0.121297 8.3801 -0.121295 8.86527 0.363887L9.63612 1.13473C10.1213 1.6199 10.1213 2.40654 9.63612 2.89173L3.52382 9.00403C3.37452 9.15333 3.18964 9.26209 2.98663 9.32009L0.678743 9.97948C0.492811 10.0327 0.292701 9.98075 0.155968 9.84402C0.0192339 9.70729 -0.032622 9.50723 0.0204975 9.3213L0.6799 7.01337C0.737902 6.8104 0.846685 6.62546 0.995985 6.47616L7.10832 0.363887ZM8.11232 1.11689C8.04296 1.04758 7.93057 1.04758 7.86128 1.11689L6.96492 2.01322L7.9868 3.03506L8.88316 2.13873C8.95245 2.06941 8.95245 1.95704 8.88316 1.88773L8.11232 1.11689ZM7.23377 3.78806L6.21195 2.76622L1.74899 7.22919C1.72766 7.25049 1.71212 7.2769 1.70383 7.30593L1.30772 8.69229L2.69408 8.29615C2.72308 8.28791 2.74949 8.27237 2.77082 8.251L7.23377 3.78806Z" fill="white"/>
</svg>
