<svg width="12" height="14" viewBox="0 0 12 14" fill="none" xmlns="http://www.w3.org/2000/svg">
<path fill-rule="evenodd" clip-rule="evenodd" d="M7.76094 5.76701C8.22977 5.29817 8.49317 4.66229 8.49317 3.99925C8.49317 3.33621 8.22977 2.70032 7.76094 2.23148C7.2921 1.76264 6.65621 1.49925 5.99317 1.49925C5.33013 1.49925 4.69425 1.76264 4.22541 2.23148C3.75656 2.70032 3.49317 3.33621 3.49317 3.99925C3.49317 4.66229 3.75656 5.29817 4.22541 5.76701C4.69425 6.23586 5.33013 6.49925 5.99317 6.49925C6.65621 6.49925 7.2921 6.23586 7.76094 5.76701ZM9.85397 5.04439C9.63927 5.83783 9.18547 6.54589 8.55417 7.07225C9.53877 7.53751 10.3783 8.2618 10.9829 9.16755C11.5874 10.0733 11.9342 11.8422 11.9862 12.93C11.9898 12.981 11.9881 13.032 11.9812 13.0824C11.9935 13.1363 12 13.1924 12 13.25C12 13.6642 11.6642 14 11.25 14H0.75C0.335786 14 0 13.6642 0 13.25C0 13.1982 0.00524542 13.1477 0.0152338 13.0989C0.00395168 13.0438 -0.00117785 12.9871 0.000227001 12.93C0.052087 11.8423 0.398703 10.0736 1.00307 9.16775C1.60744 8.262 2.44676 7.53765 3.43117 7.07225C2.79986 6.54589 2.34603 5.83783 2.13142 5.04439C1.91681 4.25094 1.95185 3.41065 2.23176 2.63783C2.51166 1.86501 3.02286 1.19718 3.69579 0.72519C4.36872 0.25321 5.17072 0 5.99267 0C6.81462 0 7.61662 0.25321 8.28957 0.72519C8.96247 1.19718 9.47367 1.86501 9.75357 2.63783C10.0335 3.41065 10.0686 4.25094 9.85397 5.04439ZM1.54434 12.5H10.4421C10.2931 11.3748 9.82316 9.93076 9.09927 9.24025C8.26227 8.44178 7.14993 7.99632 5.99317 7.99632C4.83641 7.99632 3.72408 8.44178 2.88708 9.24025C2.16319 9.93076 1.69337 11.3748 1.54434 12.5Z" fill="#F6A405"/>
</svg>
