<svg xmlns="http://www.w3.org/2000/svg" viewBox="0 0 8 15" fill="none" xmlns="http://www.w3.org/1999/xlink" width="8" height="15">
<g transform="matrix(1.3333 0 0 1.3333 0 0)">
	<g clip-path="url(#1)" >
    <path   transform="matrix(1 0 0 -1 0 11)"  d="M0.2447176 0.216207C -0.06808519 0.517299 -0.08300257 1.02072 0.21140242 1.3406326L0.21140242 1.3406326L4.1541376 5.625L4.1541376 5.625L0.21140242 9.909374L0.21140242 9.909374L0.21140242 9.909374C -0.08300257 10.22925 -0.06808519 10.732725 0.2447176 11.033775L0.2447176 11.033775L0.2447176 11.033775C 0.5575199 11.3349 1.0497527 11.3196 1.3441577 10.999725L1.3441577 10.999725L5.7886 6.170175C 6.0704665 5.86389 6.0704665 5.38611 5.7886 5.079825L5.7886 5.079825L1.3441577 0.25028026C 1.0497527 -0.069630526 0.5575199 -0.08488575 0.2447176 0.216207z" stroke="#FFFFFF" stroke-width="0" fill="#F6A405" fill-rule="evenodd" />
	</g>
</g>
</svg>